# xmcd CD database file
#
# Track frame offsets:
#	150
#	11736
#	27899
#	44349
#	56210
#	74746
#	88315
#	107448
#	128888
#	140056
#
# Disc length: 2054 seconds
#
# Revision: 0
# Processed by: cddbd v1.5.2PL0 Copyright (c) Steve Scherf et al.
# Submitted via: CDex 1.51
#
DISCID=9508040a
DTITLE=Robert Hildreth - New Country, Fresh from the Mill
DYEAR=2004
DGENRE=Country
TTITLE0=Alive
TTITLE1=Glad to be a Man
TTITLE2=Nothing Better than That
TTITLE3=Headin' Straight for your Heart
TTITLE4=Broken with nowhere to Crawl
TTITLE5=Good Ol' Gal
TTITLE6=The Lucky One
TTITLE7=Time
TTITLE8=Awful Ornry Ain't She
TTITLE9=Hit by Love
EXTD=YEAR: 2004
EXTT0=
EXTT1=
EXTT2=
EXTT3=
EXTT4=
EXTT5=
EXTT6=
EXTT7=
EXTT8=
EXTT9=
PLAYORDER=
